<svg width="21" height="21" viewBox="0 0 21 21" fill="none" xmlns="http://www.w3.org/2000/svg">
<path fill-rule="evenodd" clip-rule="evenodd" d="M6 20.25C6 19.8358 6.33579 19.5 6.75 19.5H14.25C14.6642 19.5 15 19.8358 15 20.25C15 20.6642 14.6642 21 14.25 21H6.75C6.33579 21 6 20.6642 6 20.25Z" fill="black"/>
<path fill-rule="evenodd" clip-rule="evenodd" d="M10.5 13.5C10.9142 13.5 11.25 13.8358 11.25 14.25V20.25C11.25 20.6642 10.9142 21 10.5 21C10.0858 21 9.75 20.6642 9.75 20.25V14.25C9.75 13.8358 10.0858 13.5 10.5 13.5Z" fill="black"/>
<path fill-rule="evenodd" clip-rule="evenodd" d="M15.7443 0C16.1421 0 16.5236 0.158036 16.805 0.43934C17.0862 0.720574 17.2442 1.10199 17.2443 1.49971C17.2443 1.4998 17.2443 1.4999 17.2443 1.5H16.4943L17.2443 1.49882C17.2443 1.49911 17.2443 1.49941 17.2443 1.49971C17.2462 2.69036 17.2499 6.62642 17.2499 9C17.2499 10.8412 16.0695 12.3489 14.7425 13.353C13.4172 14.3559 11.7616 15 10.498 15C9.23442 15 7.57931 14.3559 6.25437 13.3529C4.92778 12.3487 3.74805 10.841 3.74805 9C3.74805 8.28186 3.74957 6.76716 3.75109 5.25346L3.75109 5.25276C3.75262 3.7388 3.75414 2.22597 3.75414 1.50984L3.75414 1.5075C3.75538 1.11049 3.91397 0.73016 4.19514 0.449869C4.47618 0.169702 4.85679 0.0123256 5.25361 0.0121875L5.25327 0.0121879L5.25414 0.762187L5.25414 0.0121874L15.7443 0ZM15.7443 1.5L5.25414 1.51219C5.25414 2.22998 5.25262 3.74141 5.25109 5.25271L5.25109 5.25497C5.24957 6.76917 5.24805 8.28283 5.24805 9C5.24805 10.1721 6.01363 11.2894 7.15969 12.1569C8.3074 13.0257 9.6523 13.5 10.498 13.5C11.3438 13.5 12.6892 13.0257 13.8374 12.1568C14.984 11.2892 15.7499 10.1719 15.7499 9C15.7499 6.62667 15.7462 2.69004 15.7443 1.50118V1.5Z" fill="black"/>
<path fill-rule="evenodd" clip-rule="evenodd" d="M0 3C0 2.58579 0.335786 2.25 0.75 2.25H4.5C4.91421 2.25 5.25 2.58579 5.25 3C5.25 3.41421 4.91421 3.75 4.5 3.75H1.5C1.5 4.90413 1.85361 6.06912 2.43078 6.92701C3.01071 7.78902 3.7442 8.25 4.5 8.25C4.91421 8.25 5.25 8.58579 5.25 9C5.25 9.41421 4.91421 9.75 4.5 9.75C3.07846 9.75 1.93695 8.8802 1.18622 7.76431C0.432717 6.64432 0 5.18431 0 3.75V3Z" fill="black"/>
<path fill-rule="evenodd" clip-rule="evenodd" d="M15.75 3C15.75 2.58579 16.0858 2.25 16.5 2.25H20.25C20.6642 2.25 21 2.58579 21 3V3.75C21 5.18431 20.5673 6.64432 19.8138 7.76431C19.0631 8.8802 17.9215 9.75 16.5 9.75C16.0858 9.75 15.75 9.41421 15.75 9C15.75 8.58579 16.0858 8.25 16.5 8.25C17.2558 8.25 17.9893 7.78902 18.5692 6.92701C19.1464 6.06912 19.5 4.90413 19.5 3.75H16.5C16.0858 3.75 15.75 3.41421 15.75 3Z" fill="black"/>
</svg>
