<svg width="22" height="24" viewBox="0 0 22 24" fill="none" xmlns="http://www.w3.org/2000/svg">
<path d="M21.2271 3.81811C19.5101 3.81811 18.1134 2.42128 18.1134 0.704437V0H3.88647V0.704437C3.88647 2.42137 2.48964 3.81811 0.772797 3.81811H0.0683594V8.5027C0.0683594 11.869 1.08241 15.1105 3.001 17.8766C4.91959 20.6426 7.60023 22.7282 10.7531 23.9077L10.9999 24L11.2468 23.9077C14.3997 22.7282 17.0804 20.6427 18.9989 17.8766C20.9175 15.1105 21.9315 11.869 21.9315 8.5027V3.81811H21.2271ZM20.5227 8.5027H20.5226C20.5226 11.5807 19.5954 14.5444 17.8412 17.0736C16.1373 19.5302 13.7758 21.3998 10.9999 22.4932C8.224 21.3997 5.86248 19.5302 4.15862 17.0736C2.40442 14.5445 1.47723 11.5807 1.47723 8.5027V5.17223C3.40802 4.86895 4.93731 3.33966 5.24059 1.40887H16.7593C17.0626 3.33966 18.5919 4.86895 20.5227 5.17223V8.5027Z" fill="black"/>
<path d="M14.1431 6.61816L9.48013 11.2812L7.85633 9.6574L4.86768 12.6461L9.48013 17.2586L17.1318 9.60687L14.1431 6.61816ZM6.86014 12.6462L7.85638 11.65L9.48018 13.2738L14.1432 8.61073L15.1394 9.60697L9.48018 15.2662L6.86014 12.6462Z" fill="black"/>
</svg>
